<mxfile host="app.diagrams.net" agent="Mozilla/5.0 (Windows NT 10.0; Win64; x64) AppleWebKit/537.36 (KHTML, like Gecko) Chrome/123.0.0.0 Safari/537.36 OPR/109.0.0.0" version="24.7.6">
  <diagram name="Página-1" id="YU4Dycjnp7gRYJhIwkAn">
    <mxGraphModel dx="1050" dy="691" grid="1" gridSize="10" guides="1" tooltips="1" connect="1" arrows="1" fold="1" page="1" pageScale="1" pageWidth="827" pageHeight="1169" math="0" shadow="0">
      <root>
        <mxCell id="0" />
        <mxCell id="1" parent="0" />
        <mxCell id="-gvgmfCJkRDJtBgIJwlY-41" value="" style="rounded=0;whiteSpace=wrap;html=1;" parent="1" vertex="1">
          <mxGeometry x="159" y="65" width="641" height="555" as="geometry" />
        </mxCell>
        <mxCell id="-gvgmfCJkRDJtBgIJwlY-1" value="Professor" style="shape=umlActor;verticalLabelPosition=bottom;verticalAlign=top;html=1;outlineConnect=0;fillColor=#fad7ac;strokeColor=#000000;" parent="1" vertex="1">
          <mxGeometry x="100" y="315" width="30" height="60" as="geometry" />
        </mxCell>
        <mxCell id="-gvgmfCJkRDJtBgIJwlY-2" value="Aluno" style="shape=umlActor;verticalLabelPosition=bottom;verticalAlign=top;html=1;outlineConnect=0;fillColor=#fad7ac;strokeColor=#000000;" parent="1" vertex="1">
          <mxGeometry x="830" y="310" width="30" height="60" as="geometry" />
        </mxCell>
        <mxCell id="-gvgmfCJkRDJtBgIJwlY-3" value="simular beacon" style="ellipse;whiteSpace=wrap;html=1;fillColor=#fad7ac;strokeColor=#000000;" parent="1" vertex="1">
          <mxGeometry x="645" y="455" width="130" height="60" as="geometry" />
        </mxCell>
        <mxCell id="-gvgmfCJkRDJtBgIJwlY-7" value="Aplicação mobile para marcar presença escolar" style="text;html=1;align=center;verticalAlign=middle;resizable=0;points=[];autosize=1;strokeColor=none;fillColor=none;" parent="1" vertex="1">
          <mxGeometry x="144" y="30" width="280" height="30" as="geometry" />
        </mxCell>
        <mxCell id="-gvgmfCJkRDJtBgIJwlY-19" style="rounded=0;orthogonalLoop=1;jettySize=auto;html=1;exitX=1;exitY=0.5;exitDx=0;exitDy=0;dashed=1;endArrow=open;endFill=0;" parent="1" source="-gvgmfCJkRDJtBgIJwlY-8" target="-gvgmfCJkRDJtBgIJwlY-3" edge="1">
          <mxGeometry relative="1" as="geometry">
            <mxPoint x="394" y="657.5" as="sourcePoint" />
            <mxPoint x="544" y="570" as="targetPoint" />
          </mxGeometry>
        </mxCell>
        <mxCell id="-gvgmfCJkRDJtBgIJwlY-8" value="identificar sinal beacon" style="ellipse;whiteSpace=wrap;html=1;fillColor=#fad7ac;strokeColor=#000000;" parent="1" vertex="1">
          <mxGeometry x="240" y="460" width="140" height="57.5" as="geometry" />
        </mxCell>
        <mxCell id="-gvgmfCJkRDJtBgIJwlY-17" style="rounded=0;orthogonalLoop=1;jettySize=auto;html=1;exitX=0.745;exitY=0.042;exitDx=0;exitDy=0;strokeColor=default;endArrow=none;endFill=0;exitPerimeter=0;" parent="1" source="-gvgmfCJkRDJtBgIJwlY-3" target="-gvgmfCJkRDJtBgIJwlY-2" edge="1">
          <mxGeometry relative="1" as="geometry">
            <mxPoint x="510" y="520" as="sourcePoint" />
            <mxPoint x="840" y="415" as="targetPoint" />
          </mxGeometry>
        </mxCell>
        <mxCell id="-gvgmfCJkRDJtBgIJwlY-20" value="&amp;lt;include&amp;gt;" style="text;html=1;align=center;verticalAlign=middle;resizable=0;points=[];autosize=1;strokeColor=none;fillColor=none;" parent="1" vertex="1">
          <mxGeometry x="470" y="460" width="80" height="30" as="geometry" />
        </mxCell>
        <mxCell id="-gvgmfCJkRDJtBgIJwlY-21" value="registrar presença" style="ellipse;whiteSpace=wrap;html=1;fillColor=#fad7ac;strokeColor=#000000;" parent="1" vertex="1">
          <mxGeometry x="620" y="270" width="130" height="60" as="geometry" />
        </mxCell>
        <mxCell id="-gvgmfCJkRDJtBgIJwlY-27" style="rounded=0;orthogonalLoop=1;jettySize=auto;html=1;dashed=1;endArrow=open;endFill=0;entryX=0.5;entryY=0;entryDx=0;entryDy=0;" parent="1" source="-gvgmfCJkRDJtBgIJwlY-25" target="-gvgmfCJkRDJtBgIJwlY-21" edge="1">
          <mxGeometry relative="1" as="geometry" />
        </mxCell>
        <mxCell id="-gvgmfCJkRDJtBgIJwlY-25" value="exportar presença" style="ellipse;whiteSpace=wrap;html=1;fillColor=#fad7ac;strokeColor=#000000;" parent="1" vertex="1">
          <mxGeometry x="620" y="110" width="130" height="60" as="geometry" />
        </mxCell>
        <mxCell id="-gvgmfCJkRDJtBgIJwlY-26" value="&amp;lt;include&amp;gt;" style="text;html=1;align=center;verticalAlign=middle;resizable=0;points=[];autosize=1;strokeColor=none;fillColor=none;" parent="1" vertex="1">
          <mxGeometry x="680" y="205" width="80" height="30" as="geometry" />
        </mxCell>
        <mxCell id="-gvgmfCJkRDJtBgIJwlY-40" value="UC" style="shape=umlFrame;whiteSpace=wrap;html=1;pointerEvents=0;fillColor=#FFFFFF;" parent="1" vertex="1">
          <mxGeometry x="80" y="20" width="790" height="640" as="geometry" />
        </mxCell>
        <mxCell id="1AUR4HAP6LAa8ERAQfpp-2" style="rounded=0;orthogonalLoop=1;jettySize=auto;html=1;dashed=1;endArrow=open;endFill=0;entryX=0.878;entryY=0.189;entryDx=0;entryDy=0;entryPerimeter=0;" parent="1" source="-gvgmfCJkRDJtBgIJwlY-21" target="-gvgmfCJkRDJtBgIJwlY-8" edge="1">
          <mxGeometry relative="1" as="geometry">
            <mxPoint x="350" y="555" as="sourcePoint" />
            <mxPoint x="340" y="440" as="targetPoint" />
          </mxGeometry>
        </mxCell>
        <mxCell id="1AUR4HAP6LAa8ERAQfpp-3" value="&amp;lt;extend&amp;gt;" style="text;html=1;align=center;verticalAlign=middle;resizable=0;points=[];autosize=1;strokeColor=none;fillColor=none;" parent="1" vertex="1">
          <mxGeometry x="454" y="370" width="70" height="30" as="geometry" />
        </mxCell>
        <mxCell id="1AUR4HAP6LAa8ERAQfpp-4" value="" style="shape=note2;boundedLbl=1;whiteSpace=wrap;html=1;size=25;verticalAlign=top;align=center;fillColor=#FAD7AC;strokeColor=#000000;" parent="1" vertex="1">
          <mxGeometry x="580" y="365" width="100" height="50" as="geometry" />
        </mxCell>
        <mxCell id="1AUR4HAP6LAa8ERAQfpp-5" style="rounded=0;orthogonalLoop=1;jettySize=auto;html=1;dashed=1;endArrow=none;endFill=0;exitX=0.1;exitY=0.5;exitDx=0;exitDy=0;exitPerimeter=0;" parent="1" source="1AUR4HAP6LAa8ERAQfpp-6" edge="1">
          <mxGeometry relative="1" as="geometry">
            <mxPoint x="610" y="355" as="sourcePoint" />
            <mxPoint x="530" y="380" as="targetPoint" />
          </mxGeometry>
        </mxCell>
        <mxCell id="1AUR4HAP6LAa8ERAQfpp-6" value="Se o sinal for&amp;nbsp;&lt;div&gt;identificado&lt;/div&gt;" style="text;html=1;align=center;verticalAlign=middle;resizable=0;points=[];autosize=1;strokeColor=none;fillColor=none;" parent="1" vertex="1">
          <mxGeometry x="570" y="375" width="100" height="40" as="geometry" />
        </mxCell>
        <mxCell id="1AUR4HAP6LAa8ERAQfpp-7" value="cadastrar aluno" style="ellipse;whiteSpace=wrap;html=1;fillColor=#fad7ac;strokeColor=#000000;" parent="1" vertex="1">
          <mxGeometry x="210" y="315" width="130" height="60" as="geometry" />
        </mxCell>
        <mxCell id="1AUR4HAP6LAa8ERAQfpp-8" value="cadastrar disciplina" style="ellipse;whiteSpace=wrap;html=1;fillColor=#fad7ac;strokeColor=#000000;" parent="1" vertex="1">
          <mxGeometry x="205" y="230" width="130" height="60" as="geometry" />
        </mxCell>
        <mxCell id="1AUR4HAP6LAa8ERAQfpp-9" value="cadastrar aula" style="ellipse;whiteSpace=wrap;html=1;fillColor=#fad7ac;strokeColor=#000000;" parent="1" vertex="1">
          <mxGeometry x="235" y="110" width="130" height="60" as="geometry" />
        </mxCell>
        <mxCell id="1AUR4HAP6LAa8ERAQfpp-10" style="rounded=0;orthogonalLoop=1;jettySize=auto;html=1;entryX=0.032;entryY=0.652;entryDx=0;entryDy=0;strokeColor=default;endArrow=none;endFill=0;entryPerimeter=0;" parent="1" source="-gvgmfCJkRDJtBgIJwlY-1" target="1AUR4HAP6LAa8ERAQfpp-7" edge="1">
          <mxGeometry relative="1" as="geometry">
            <mxPoint x="120" y="350" as="sourcePoint" />
            <mxPoint x="425" y="416" as="targetPoint" />
          </mxGeometry>
        </mxCell>
        <mxCell id="1AUR4HAP6LAa8ERAQfpp-13" style="rounded=0;orthogonalLoop=1;jettySize=auto;html=1;entryX=0.202;entryY=0.909;entryDx=0;entryDy=0;strokeColor=default;endArrow=none;endFill=0;entryPerimeter=0;" parent="1" source="-gvgmfCJkRDJtBgIJwlY-1" target="1AUR4HAP6LAa8ERAQfpp-8" edge="1">
          <mxGeometry relative="1" as="geometry">
            <mxPoint x="164" y="393.5" as="sourcePoint" />
            <mxPoint x="219" y="340" as="targetPoint" />
          </mxGeometry>
        </mxCell>
        <mxCell id="1AUR4HAP6LAa8ERAQfpp-14" style="rounded=0;orthogonalLoop=1;jettySize=auto;html=1;dashed=1;endArrow=open;endFill=0;entryX=0.585;entryY=0.009;entryDx=0;entryDy=0;exitX=0.43;exitY=0.977;exitDx=0;exitDy=0;exitPerimeter=0;entryPerimeter=0;" parent="1" source="1AUR4HAP6LAa8ERAQfpp-9" target="1AUR4HAP6LAa8ERAQfpp-8" edge="1">
          <mxGeometry relative="1" as="geometry">
            <mxPoint x="565" y="200" as="sourcePoint" />
            <mxPoint x="480" y="200" as="targetPoint" />
          </mxGeometry>
        </mxCell>
        <mxCell id="1AUR4HAP6LAa8ERAQfpp-16" style="rounded=0;orthogonalLoop=1;jettySize=auto;html=1;dashed=1;endArrow=open;endFill=0;entryX=1;entryY=0.5;entryDx=0;entryDy=0;exitX=0.001;exitY=0.463;exitDx=0;exitDy=0;exitPerimeter=0;" parent="1" source="-gvgmfCJkRDJtBgIJwlY-21" target="A8jrEeyfnqkZN0Z29jdg-2" edge="1">
          <mxGeometry relative="1" as="geometry">
            <mxPoint x="354.5" y="300" as="sourcePoint" />
            <mxPoint x="395.5" y="352" as="targetPoint" />
          </mxGeometry>
        </mxCell>
        <mxCell id="1AUR4HAP6LAa8ERAQfpp-18" value="&amp;lt;include&amp;gt;" style="text;html=1;align=center;verticalAlign=middle;resizable=0;points=[];autosize=1;strokeColor=none;fillColor=none;" parent="1" vertex="1">
          <mxGeometry x="210" y="180" width="80" height="30" as="geometry" />
        </mxCell>
        <mxCell id="1AUR4HAP6LAa8ERAQfpp-19" value="&amp;lt;include&amp;gt;" style="text;html=1;align=center;verticalAlign=middle;resizable=0;points=[];autosize=1;strokeColor=none;fillColor=none;" parent="1" vertex="1">
          <mxGeometry x="540" y="260" width="80" height="30" as="geometry" />
        </mxCell>
        <mxCell id="A8jrEeyfnqkZN0Z29jdg-2" value="Vincular aluno&amp;nbsp;&lt;div&gt;à disciplina&lt;/div&gt;" style="ellipse;whiteSpace=wrap;html=1;fillColor=#fad7ac;strokeColor=#000000;" vertex="1" parent="1">
          <mxGeometry x="410" y="245" width="130" height="60" as="geometry" />
        </mxCell>
        <mxCell id="A8jrEeyfnqkZN0Z29jdg-3" style="rounded=0;orthogonalLoop=1;jettySize=auto;html=1;dashed=1;endArrow=open;endFill=0;entryX=1.003;entryY=0.471;entryDx=0;entryDy=0;exitX=0.013;exitY=0.437;exitDx=0;exitDy=0;exitPerimeter=0;entryPerimeter=0;" edge="1" parent="1" source="A8jrEeyfnqkZN0Z29jdg-2" target="1AUR4HAP6LAa8ERAQfpp-8">
          <mxGeometry relative="1" as="geometry">
            <mxPoint x="604" y="160" as="sourcePoint" />
            <mxPoint x="531" y="254" as="targetPoint" />
          </mxGeometry>
        </mxCell>
        <mxCell id="A8jrEeyfnqkZN0Z29jdg-4" value="&amp;lt;include&amp;gt;" style="text;html=1;align=center;verticalAlign=middle;resizable=0;points=[];autosize=1;strokeColor=none;fillColor=none;" vertex="1" parent="1">
          <mxGeometry x="340" y="235" width="80" height="30" as="geometry" />
        </mxCell>
        <mxCell id="A8jrEeyfnqkZN0Z29jdg-6" value="&amp;lt;include&amp;gt;" style="text;html=1;align=center;verticalAlign=middle;resizable=0;points=[];autosize=1;strokeColor=none;fillColor=none;" vertex="1" parent="1">
          <mxGeometry x="360" y="325" width="80" height="30" as="geometry" />
        </mxCell>
        <mxCell id="A8jrEeyfnqkZN0Z29jdg-7" style="rounded=0;orthogonalLoop=1;jettySize=auto;html=1;dashed=1;endArrow=open;endFill=0;entryX=1;entryY=0.5;entryDx=0;entryDy=0;exitX=0.221;exitY=0.944;exitDx=0;exitDy=0;exitPerimeter=0;" edge="1" parent="1" source="A8jrEeyfnqkZN0Z29jdg-2" target="1AUR4HAP6LAa8ERAQfpp-7">
          <mxGeometry relative="1" as="geometry">
            <mxPoint x="604" y="160" as="sourcePoint" />
            <mxPoint x="531" y="254" as="targetPoint" />
          </mxGeometry>
        </mxCell>
        <mxCell id="A8jrEeyfnqkZN0Z29jdg-10" style="rounded=0;orthogonalLoop=1;jettySize=auto;html=1;entryX=0.042;entryY=0.28;entryDx=0;entryDy=0;strokeColor=default;endArrow=none;endFill=0;entryPerimeter=0;" edge="1" parent="1" source="-gvgmfCJkRDJtBgIJwlY-1" target="-gvgmfCJkRDJtBgIJwlY-8">
          <mxGeometry relative="1" as="geometry">
            <mxPoint x="120" y="350" as="sourcePoint" />
            <mxPoint x="224" y="364" as="targetPoint" />
          </mxGeometry>
        </mxCell>
      </root>
    </mxGraphModel>
  </diagram>
</mxfile>
